:SAMPLES-PER-SECOND 30
:FRAME-RANGE 1-3535
:FULLY-SPECIFIED
:DEGREES
3094
root  0.501066 37.1754 -48.6405 -4.1377 -41.8886 10.9672
RightUpLeg  -31.5491 8.04936 -14.1276
RightLeg  44.6633 5.39287 5.38718
RightFoot  -16.1106 0.174609 6.8118
RightToes  5.38503e-012 1.26228e-014 -6.01869e-014
Spine  26.0859 2.42831 7.66726
Spine1  -5.76301 5.28939 -5.91329
HEad  -16.5987 31.0227 -31.2291
LeftShoulder1  3.35535 -8.33127 -22.8122
LeftArm  -11.1523 -19.1594 -51.7245
LeftForeArm  9.21307 -1.38912 -8.85972
LeftHand  0.00272194 -0.859699 0.0364226
RightShoulder  2.88319 8.62848 17.7022
RightArm  -20.276 44.6818 69.0404
RightForeArm  23.9148 -5.32644 -2.97326
RightHand  0.0533404 4.71382 0.317774
LeftUpLeg  -67.3188 2.4481 -2.08953
LeftLeg  93.9358 -0.208487 -0.691536
LeftFoot  -12.2448 0.0298852 -5.50746
LeftToes  8.9788e-011 3.29689e-010 2.1201e-011
3095
root  0.345296 36.2011 -48.7709 -7.68591 -38.2561 14.9365
RightUpLeg  -33.7819 5.19487 -17.2064
RightLeg  53.1946 3.80527 5.0713
RightFoot  -19.359 0.200146 4.72633
RightToes  5.38503e-012 1.26228e-014 -6.01869e-014
Spine  28.403 1.82284 8.08468
Spine1  -5.52271 5.22905 -7.5206
HEad  -17.1059 28.1668 -33.0131
LeftShoulder1  3.88268 -10.0462 -23.0679
LeftArm  -8.50002 -24.7174 -53.1786
LeftForeArm  7.17145 7.4521 -9.49924
LeftHand  0.0527677 0.357255 -1.27542
RightShoulder  2.81123 9.25213 15.7698
RightArm  -21.9949 48.2702 69.6622
RightForeArm  24.6329 -4.78058 -6.03106
RightHand  -0.015377 2.46975 -0.426254
LeftUpLeg  -74.5036 -0.298181 -6.65009
LeftLeg  98.6628 0.0525413 -1.80005
LeftFoot  -13.9982 -0.039521 -5.31681
LeftToes  8.9788e-011 3.29689e-010 2.1201e-011
3096
root  0.13574 35.3174 -48.9072 -9.47687 -35.309 15.8259
RightUpLeg  -34.3045 4.70814 -18.1887
RightLeg  59.0978 2.45131 3.95781
RightFoot  -22.7093 0.349593 5.05752
RightToes  5.38503e-012 1.26228e-014 -6.01869e-014
Spine  29.43 1.13725 9.65376
Spine1  -4.11139 5.25734 -8.22445
HEad  -17.0677 26.0326 -34.0498
LeftShoulder1  4.18683 -11.295 -22.6339
LeftArm  -7.92329 -27.6019 -55.0233
LeftForeArm  9.4543 7.57124 -10.1768
LeftHand  0.0982534 0.768916 -2.60537
RightShoulder  2.85218 9.70584 15.2608
RightArm  -22.7965 51.5485 69.3204
RightForeArm  27.6582 -4.40992 -7.95177
RightHand  -0.0941932 1.54366 -1.72278
LeftUpLeg  -79.9254 -1.4181 -8.72686
LeftLeg  101.4 0.155426 -1.87477
LeftFoot  -14.1721 -0.030537 -4.67014
LeftToes  8.9788e-011 3.29689e-010 2.1201e-011
3097
root  -0.167272 34.575 -48.9696 -9.7746 -33.2611 15.493
RightUpLeg  -35.0086 3.38566 -17.7663
RightLeg  63.6686 1.77396 3.34256
RightFoot  -25.2669 0.421394 4.85265
RightToes  5.38503e-012 1.26228e-014 -6.01869e-014
Spine  29.4701 0.814764 10.1679
Spine1  -3.48025 4.98029 -7.2932
HEad  -16.9217 25.0812 -34.6101
LeftShoulder1  4.13101 -11.1485 -22.5334
LeftArm  -7.13004 -27.241 -56.0734
LeftForeArm  8.35784 7.61863 -10.5019
LeftHand  0.0959626 0.861439 -2.6135
RightShoulder  2.93239 10.0327 15.3325
RightArm  -22.516 53.4878 70.5168
RightForeArm  29.3737 -4.20513 -8.98757
RightHand  -0.162052 0.120541 -3.44863
LeftUpLeg  -83.5689 -1.37257 -9.43299
LeftLeg  102.125 0.188904 -1.91479
LeftFoot  -13.2716 -0.00503303 -5.01533
LeftToes  8.9788e-011 3.29689e-010 2.1201e-011
3098
root  -0.529725 34.1819 -49.0141 -9.65839 -31.3211 14.3604
RightUpLeg  -34.3706 1.70734 -16.4809
RightLeg  65.9287 1.49574 3.04181
RightFoot  -26.9988 0.386538 4.14352
RightToes  5.38503e-012 1.26228e-014 -6.01869e-014
Spine  29.2064 0.771401 10.3269
Spine1  -3.22105 4.62454 -5.65716
HEad  -16.2966 24.3648 -33.6715
LeftShoulder1  4.08714 -10.9463 -22.638
LeftArm  -6.04554 -25.3057 -55.9849
LeftForeArm  6.05971 7.65433 -10.8049
LeftHand  0.107684 0.265792 -2.49722
RightShoulder  3.01485 9.99198 16.0858
RightArm  -21.4834 53.7531 70.8099
RightForeArm  33.5981 -4.30208 -8.13169
RightHand  -0.183193 -0.824924 -4.58771
LeftUpLeg  -83.3192 -0.530613 -9.40533
LeftLeg  100.566 0.451134 -3.32249
LeftFoot  -11.8285 0.0468397 -5.64157
LeftToes  8.9788e-011 3.29689e-010 2.1201e-011
3099
root  -0.919104 34.1458 -49.0415 -9.28748 -29.935 13.0312
RightUpLeg  -33.1079 0.408717 -14.8026
RightLeg  66.1186 1.30337 2.59265
RightFoot  -27.6827 0.341727 3.68871
RightToes  5.38503e-012 1.26228e-014 -6.01869e-014
Spine  28.1823 1.04204 10.6956
Spine1  -2.61153 4.72702 -4.90563
HEad  -14.5214 23.4848 -31.2683
LeftShoulder1  3.91315 -10.5699 -22.1343
LeftArm  -4.81195 -23.7399 -55.6605
LeftForeArm  7.13031 7.65785 -11.0966
LeftHand  0.107137 -0.319168 -2.16021
RightShoulder  3.02071 9.83911 16.4225
RightArm  -19.3158 52.9577 70.2826
RightForeArm  40.2058 -4.64758 -5.53753
RightHand  -0.188734 -1.30851 -5.22771
LeftUpLeg  -79.5488 1.52465 -9.20433
LeftLeg  97.3298 0.309073 -3.61451
LeftFoot  -10.0204 0.128387 -5.92784
LeftToes  8.9788e-011 3.29689e-010 2.1201e-011
